<?xml version="1.0"?>

<!DOCTYPE svg PUBLIC '-//W3C//DTD SVG 1.0//EN' 'http://www.w3.org/TR/2001/REC-SVG-20010904/DTD/svg10.dtd'>
<svg fill-opacity="1" xmlns:xlink="http://www.w3.org/1999/xlink" color-rendering="auto" color-interpolation="auto" text-rendering="auto" stroke="black" stroke-linecap="square" stroke-miterlimit="10" shape-rendering="auto" stroke-opacity="1" fill="black" stroke-dasharray="none" font-weight="normal" stroke-width="1" xmlns="http://www.w3.org/2000/svg" font-family="&apos;Dialog&apos;" font-style="normal" stroke-linejoin="miter" font-size="12" stroke-dashoffset="0" image-rendering="auto">
  <!--Unicode Character 'DISAPPOINTED FACE' (U+1F61E)-->
  <defs id="genericDefs" />
  <g>
    <g>
      <path d="M219.2344 188.1562 L170.8594 154.4062 L181.6875 138.7969 L230.0625 172.6875 L219.2344 188.1562 ZM81.1406 188.1562 L70.3125 172.6875 L118.6875 138.7969 L129.5156 154.4062 L81.1406 188.1562 ZM90.2812 201.7969 Q90.2812 193.5 95.9766 187.8047 Q101.6719 182.1094 109.9688 182.1094 Q118.125 182.1094 123.8906 187.8047 Q129.6562 193.5 129.6562 201.7969 Q129.6562 210.0938 123.8906 215.8594 Q118.125 221.625 109.9688 221.625 Q101.6719 221.625 95.9766 215.7891 Q90.2812 209.9531 90.2812 201.7969 ZM171.5625 201.7969 Q171.5625 193.5 177.3281 187.8047 Q183.0938 182.1094 191.25 182.1094 Q199.4062 182.1094 205.2422 187.8047 Q211.0781 193.5 211.0781 201.7969 Q211.0781 209.9531 205.2422 215.7891 Q199.4062 221.625 191.25 221.625 Q182.9531 221.625 177.2578 215.7891 Q171.5625 209.9531 171.5625 201.7969 ZM23.9062 230.3438 Q23.9062 177.8906 60.8906 140.8359 Q97.875 103.7812 150.1875 103.7812 Q202.6406 103.7812 239.4844 140.8359 Q276.3281 177.8906 276.3281 230.3438 Q276.3281 282.6562 239.4844 319.5 Q202.6406 356.3438 150.1875 356.3438 Q97.875 356.3438 60.8906 319.5 Q23.9062 282.6562 23.9062 230.3438 ZM42.8906 230.3438 Q42.8906 274.7812 74.3203 306.0703 Q105.75 337.3594 150.1875 337.3594 Q194.7656 337.3594 226.0547 306.0703 Q257.3438 274.7812 257.3438 230.3438 Q257.3438 185.7656 226.0547 154.2656 Q194.7656 122.7656 150.1875 122.7656 Q105.75 122.7656 74.3203 154.2656 Q42.8906 185.7656 42.8906 230.3438 ZM76.0781 288.5625 Q81.2812 280.6875 88.3125 273.5156 Q113.9062 248.0625 150.1875 248.0625 Q186.4688 248.0625 212.0625 273.5156 Q219.2344 280.6875 224.2969 288.5625 L208.125 298.6875 Q204.1875 292.5 198.5625 287.0156 Q178.5938 267.0469 150.1875 267.0469 Q121.7812 266.9062 101.8125 286.875 Q96.3281 292.3594 92.25 298.5469 L76.0781 288.5625 Z" stroke="none" />
    </g>
  </g>
</svg>
