<?xml version="1.0"?>

<!DOCTYPE svg PUBLIC '-//W3C//DTD SVG 1.0//EN' 'http://www.w3.org/TR/2001/REC-SVG-20010904/DTD/svg10.dtd'>
<svg fill-opacity="1" xmlns:xlink="http://www.w3.org/1999/xlink" color-rendering="auto" color-interpolation="auto" text-rendering="auto" stroke="black" stroke-linecap="square" stroke-miterlimit="10" shape-rendering="auto" stroke-opacity="1" fill="black" stroke-dasharray="none" font-weight="normal" stroke-width="1" xmlns="http://www.w3.org/2000/svg" font-family="&apos;Dialog&apos;" font-style="normal" stroke-linejoin="miter" font-size="12" stroke-dashoffset="0" image-rendering="auto">
  <!--Unicode Character 'SMILING FACE WITH OPEN MOUTH' (U+1F603)-->
  <defs id="genericDefs" />
  <g>
    <g>
      <path d="M90.2812 191.3906 Q90.2812 183.0938 95.9766 177.3984 Q101.6719 171.7031 109.9688 171.7031 Q118.125 171.7031 123.8906 177.3984 Q129.6562 183.0938 129.6562 191.3906 Q129.6562 199.5469 123.8906 205.3828 Q118.125 211.2188 109.9688 211.2188 Q101.6719 211.2188 95.9766 205.3828 Q90.2812 199.5469 90.2812 191.3906 ZM171.5625 191.3906 Q171.5625 183.0938 177.3281 177.3984 Q183.0938 171.7031 191.25 171.7031 Q199.4062 171.7031 205.2422 177.3984 Q211.0781 183.0938 211.0781 191.3906 Q211.0781 199.5469 205.2422 205.3828 Q199.4062 211.2188 191.25 211.2188 Q182.9531 211.2188 177.2578 205.3828 Q171.5625 199.5469 171.5625 191.3906 ZM23.9062 230.3438 Q23.9062 177.8906 60.8906 140.8359 Q97.875 103.7812 150.1875 103.7812 Q202.6406 103.7812 239.4844 140.8359 Q276.3281 177.8906 276.3281 230.3438 Q276.3281 282.6562 239.4844 319.5 Q202.6406 356.3438 150.1875 356.3438 Q97.875 356.3438 60.8906 319.5 Q23.9062 282.6562 23.9062 230.3438 ZM42.8906 230.3438 Q42.8906 274.7812 74.3203 306.0703 Q105.75 337.3594 150.1875 337.3594 Q194.7656 337.3594 226.0547 306.0703 Q257.3438 274.7812 257.3438 230.3438 Q257.3438 185.7656 226.0547 154.2656 Q194.7656 122.7656 150.1875 122.7656 Q105.75 122.7656 74.3203 154.2656 Q42.8906 185.7656 42.8906 230.3438 ZM62.7188 231.75 L237.5156 231.75 Q237.5156 268.0312 211.9922 293.4844 Q186.4688 318.9375 150.1875 318.9375 Q113.9062 318.9375 88.3125 293.4844 Q62.7188 268.0312 62.7188 231.75 ZM216 250.7344 L84.2344 250.7344 Q88.875 267.1875 101.8125 280.125 Q121.7812 300.0938 150.1875 300.0234 Q178.5938 299.9531 198.5625 279.9844 Q211.5 267.0469 216 250.7344 Z" stroke="none" />
    </g>
  </g>
</svg>
